<?xml version="1.0" encoding="UTF-8"?><svg id="uuid-3cf0877f-787f-401b-85db-52000f27dde9" xmlns="http://www.w3.org/2000/svg" viewBox="0 0 69.26 48.69"><rect y="42.62" width="40.93" height="6.06" fill="#36538b"/><rect x="21.02" y="42.62" width="48.24" height="6.06" fill="#4e6fae"/><g><rect x="5.08" width="18.5" height="42.62" fill="#faa31b"/><rect x="22.67" width="14.43" height="42.62" fill="#ffcb05"/><rect x="24.87" y="2.12" width="10.03" height="25.26" fill="#fff"/><path d="m34.1,34.8c0-2.33-1.89-4.21-4.21-4.21s-4.21,1.88-4.21,4.21,1.89,4.21,4.21,4.21,4.21-1.88,4.21-4.21Z" fill="#fdb714"/><path d="m33.27,34.8c0-1.87-1.51-3.38-3.38-3.38s-3.38,1.52-3.38,3.38,1.51,3.38,3.38,3.38,3.38-1.51,3.38-3.38Z" fill="#fff"/></g><g><rect x="37.1" width="14.43" height="42.62" fill="#3b9e47"/><rect x="39.3" y="2.12" width="10.03" height="25.26" fill="#fff"/><path d="m48.53,34.8c0-2.33-1.88-4.21-4.21-4.21s-4.21,1.88-4.21,4.21,1.88,4.21,4.21,4.21,4.21-1.88,4.21-4.21Z" fill="#286c36"/><path d="m47.7,34.8c0-1.87-1.51-3.38-3.38-3.38s-3.38,1.52-3.38,3.38,1.51,3.38,3.38,3.38,3.38-1.51,3.38-3.38Z" fill="#fff"/></g><g><rect x="51.53" width="14.43" height="42.62" fill="#ef4645"/><rect x="53.73" y="2.12" width="10.03" height="25.26" fill="#fff"/><path d="m62.95,34.8c0-2.33-1.88-4.21-4.21-4.21s-4.21,1.88-4.21,4.21,1.89,4.21,4.21,4.21,4.21-1.88,4.21-4.21Z" fill="#c32527"/><path d="m62.13,34.8c0-1.87-1.51-3.38-3.38-3.38s-3.38,1.52-3.38,3.38,1.51,3.38,3.38,3.38,3.38-1.51,3.38-3.38Z" fill="#fff"/></g></svg>